HIERARCHY
ROOT Hips
{
  OFFSET 51.5698 84.3383 7.40177
  CHANNELS 6 Xposition Yposition Zposition Zrotation Xrotation Yrotation
  JOINT spine
  {
    OFFSET 0 5.95438 0.342407
    CHANNELS 3 Zrotation Xrotation Yrotation
    JOINT spine1
    {
      OFFSET 0 8.85602 0
      CHANNELS 3 Zrotation Xrotation Yrotation
      JOINT spine2
      {
        OFFSET 0 8.48567 0
        CHANNELS 3 Zrotation Xrotation Yrotation
        JOINT Neck
        {
          OFFSET 0 21.7863 1.0387
          CHANNELS 3 Zrotation Xrotation Yrotation
          JOINT Head
          {
            OFFSET 0 6.5822 0
            CHANNELS 3 Zrotation Xrotation Yrotation
            End Site
            {
              OFFSET 0 15.9326 -5.25436
            }
          }
        }
        JOINT RightShoulder
        {
          OFFSET -3.57307 9.16386 -0.497525
          CHANNELS 3 Zrotation Xrotation Yrotation
          JOINT RightArm
          {
            OFFSET 0 12.0192 0
            CHANNELS 3 Zrotation Xrotation Yrotation
            JOINT RightArmRoll
            {
              OFFSET 0 6.06755 0
              CHANNELS 3 Zrotation Xrotation Yrotation
              JOINT RightForeArm
              {
                OFFSET 0 17.6726 0
                CHANNELS 3 Zrotation Xrotation Yrotation
                JOINT RightForeArmRoll
                {
                  OFFSET 0 6.80872 0
                  CHANNELS 3 Zrotation Xrotation Yrotation
                  JOINT RightHand
                  {
                    OFFSET 0 13.6636 0
                    CHANNELS 3 Zrotation Xrotation Yrotation
                    End Site
                    {
                      OFFSET 0 0 0
                    }
                  }
                }
              }
            }
          }
        }
        JOINT LeftShoulder
        {
          OFFSET 3.57307 9.16386 -0.497525
          CHANNELS 3 Zrotation Xrotation Yrotation
          JOINT LeftArm
          {
            OFFSET 0 12.0192 0
            CHANNELS 3 Zrotation Xrotation Yrotation
            JOINT LeftArmRoll
            {
              OFFSET 0 6.06755 0
              CHANNELS 3 Zrotation Xrotation Yrotation
              JOINT LeftForeArm
              {
                OFFSET 0 17.6726 0
                CHANNELS 3 Zrotation Xrotation Yrotation
                JOINT LeftForeArmRoll
                {
                  OFFSET 0 6.80872 0
                  CHANNELS 3 Zrotation Xrotation Yrotation
                  JOINT LeftHand
                  {
                    OFFSET 0 13.6636 0
                    CHANNELS 3 Zrotation Xrotation Yrotation
                    End Site
                    {
                      OFFSET 0 0 0
                    }
                  }
                }
              }
            }
          }
        }
      }
    }
  }
  JOINT RightUpLeg
  {
    OFFSET -5.27774 -0.967797 -0.811858
    CHANNELS 3 Zrotation Xrotation Yrotation
    JOINT RightUpLegRoll
    {
      OFFSET 0 16.0214 0
      CHANNELS 3 Zrotation Xrotation Yrotation
      JOINT RightLeg
      {
        OFFSET 0 -19.8401 0
        CHANNELS 3 Zrotation Xrotation Yrotation
        JOINT RightLegRoll
        {
          OFFSET 0 19.905 0
          CHANNELS 3 Zrotation Xrotation Yrotation
          JOINT RightFoot
          {
            OFFSET 0 16.5675 0
            CHANNELS 3 Zrotation Xrotation Yrotation
            JOINT RightToeBase
            {
              OFFSET 0 13.8496 0
              CHANNELS 3 Zrotation Xrotation Yrotation
              End Site
              {
                OFFSET 0.00587034 6.70728 -0.773116
              }
            }
          }
        }
      }
    }
  }
  JOINT LeftUpLeg
  {
    OFFSET 5.27774 -0.967797 -0.811858
    CHANNELS 3 Zrotation Xrotation Yrotation
    JOINT LeftUpLegRoll
    {
      OFFSET 0 16.0215 0
      CHANNELS 3 Zrotation Xrotation Yrotation
      JOINT LeftLeg
      {
        OFFSET 0 19.84 0
        CHANNELS 3 Zrotation Xrotation Yrotation
        JOINT LeftLegRoll
        {
          OFFSET 0 20.089 0
          CHANNELS 3 Zrotation Xrotation Yrotation
          JOINT LeftFoot
          {
            OFFSET 0 16.3835 0
            CHANNELS 3 Zrotation Xrotation Yrotation
            JOINT LeftToeBase
            {
              OFFSET 0 13.8496 0
              CHANNELS 3 Zrotation Xrotation Yrotation
              End Site
              {
                OFFSET -0.0263083 6.70728 -0.773116
              }
            }
          }
        }
      }
    }
  }
}
MOTION
Frames: 4
Frame Time: 0.00208333
51.0961 83.7839 8.82999 -4.51244 -11.6675 -6.64305 -0.0306622 0.5076 -0.0028893 -0.0616051 5.01802 -0.00126281 -0.0617027 6.6631 -0.000221011 14.7671 1.86974 -2.17845 -9.14578 5.79593 1.22122 58.0675 -22.6983 -14.6417 101.987 35.25 -28.6902 2.40051e-005 -1.16976e-006 2.82166e-006 -179.122 56.3788 174.736 -2.98927e-005 5.83101e-007 -3 8.03009 -4.95139 0.697625 -48.7793 7.80838 -7.20812 -120.17 62.1437 39.6681 -6.36111e-015 -3.97569e-015 8.34896e-015 5.47727 57.201 -0.520925 9.80731e-006 -1.09521e-006 2.99998 -8.0301 -4.95138 -0.697613 -173.776 -6.33261 -0.814377 180 7.01521e-015 178.815 -179.269 11.9633 179.394 -1.50729e-006 2.6636e-006 -0.0758098 -16.923 65.4734 17.6964 8.13649 25.2327 -3.48774 -175.544 -3.16662 -2.41738 4.54188e-006 -4.6773e-006 -1.24015 -1.37363 -21.4628 0.462908 1.99608e-006 6.9509e-006 -0.414961 21.0338 70.8051 -22.1606 -8.13649 25.2327 3.48774 
51.0817 83.7814 8.79898 -4.46079 -11.5824 -6.29686 -0.0401186 0.474891 -0.00633967 -0.0803806 4.9526 -0.00712736 -0.0804411 6.59767 -0.00578599 14.2733 2.02515 -2.3195 -8.53914 5.62874 0.981138 57.6576 -22.7351 -14.7202 102.007 35.4002 -28.7752 2.40051e-005 -1.16976e-006 2.82166e-006 -179.135 56.2282 174.751 -2.98927e-005 5.83101e-007 -3 8.03009 -4.95139 0.697625 -49.1829 7.79773 -7.1021 -120.482 61.806 40.0715 -6.36111e-015 5.56597e-015 -1.59028e-015 5.54631 57.9116 -0.596582 9.80731e-006 -1.09521e-006 2.99998 -8.0301 -4.95138 -0.697613 -173.742 -6.29167 -0.821334 180 7.01522e-015 178.818 -179.308 11.8766 179.402 -1.50729e-006 2.6636e-006 -0.0761133 -16.913 65.4563 17.6854 8.13649 25.2327 -3.48774 -175.512 -2.98114 -2.39754 4.54188e-006 -4.6773e-006 -1.23779 -1.32602 -21.4976 0.47597 1.99608e-006 6.9509e-006 -0.417716 21.0322 70.8037 -22.1577 -8.13649 25.2327 3.48774 
51.047 83.783 8.79868 -4.43666 -11.519 -5.97013 -0.0499036 0.448632 -0.00929 -0.0998673 4.90008 -0.0120013 -0.0999032 6.54515 -0.0103444 13.8454 2.17051 -2.45744 -7.97641 5.46854 0.759555 57.3307 -22.7413 -14.7674 101.997 35.5569 -28.8166 2.40051e-005 -1.16976e-006 2.82166e-006 -179.15 56.0649 174.767 -2.98927e-005 5.83101e-007 -3 8.03009 -4.95139 0.697625 -49.5277 7.77231 -6.99977 -120.758 61.4518 40.4399 -3.18055e-015 -4.77083e-015 2.38542e-015 5.62081 58.6413 -0.676613 9.80731e-006 -1.09521e-006 2.99998 -8.0301 -4.95138 -0.697613 -173.674 -6.29911 -0.841415 180 7.01523e-015 178.822 -179.339 11.7491 179.411 -1.50729e-006 2.6636e-006 -0.0788452 -16.8924 65.4231 17.6627 8.13649 25.2327 -3.48774 -175.445 -2.81947 -2.40014 4.54188e-006 -4.6773e-006 -1.23499 -1.28368 -21.5439 0.487899 1.99608e-006 6.9509e-006 -0.420753 21.0386 70.8092 -22.1632 -8.13649 25.2327 3.48774 
51 83.7869 8.79453 -4.43429 -11.4724 -5.65643 -0.0600153 0.427371 -0.0118507 -0.120042 4.85756 -0.016128 -0.120063 6.50263 -0.0141412 13.4692 2.30623 -2.59431 -7.44553 5.31451 0.551232 57.0725 -22.7242 -14.7907 101.962 35.7154 -28.8265 2.40051e-005 -1.16976e-006 2.82166e-006 -179.166 55.8842 174.784 -2.98927e-005 5.83101e-007 -3 8.03009 -4.95139 0.697625 -49.823 7.73469 -6.90048 -121.03 61.0959 40.8049 6.36111e-015 -1.11319e-014 1.59028e-015 5.69689 59.3541 -0.758346 9.80731e-006 -1.09521e-006 2.99998 -8.0301 -4.95138 -0.697613 -173.579 -6.34756 -0.872076 180 7.01524e-015 178.827 -179.364 11.583 179.421 -1.50729e-006 2.6636e-006 -0.0837759 -16.8617 65.3744 17.629 8.13649 25.2327 -3.48774 -175.348 -2.67563 -2.42075 4.54188e-006 -4.6773e-006 -1.23176 -1.24512 -21.5992 0.499041 1.99608e-006 6.9509e-006 -0.424068 21.0517 70.8206 -22.1761 -8.13649 25.2327 3.48774 
